<svg xmlns="http://www.w3.org/2000/svg" viewBox="0 0 369.1 181.22"><defs><style>.cls-1{fill:#2d4570;}.cls-2{fill:#f5a82e;}</style></defs><title>ShipitSmarter_Logo_RGB</title><g id="Layer_2" data-name="Layer 2"><g id="Laag_1" data-name="Laag 1"><path class="cls-1" d="M0,172.45l5.69-8.64c6,4.53,12.54,6.85,18.23,6.85,5.48,0,8.64-2.32,8.64-6v-.21c0-4.32-5.9-5.8-12.43-7.8C11.91,154.32,2.74,151,2.74,140.31v-.21c0-10.54,8.75-17,19.81-17A38.56,38.56,0,0,1,43,129.46l-5.06,9.06c-5.37-3.27-11.06-5.27-15.7-5.27-4.95,0-7.79,2.32-7.79,5.59v.21c0,4,6,5.69,12.54,7.79,8.11,2.53,17.28,6.22,17.28,16.23v.21c0,11.7-9.07,17.49-20.66,17.49A39.08,39.08,0,0,1,0,172.45"/><path class="cls-1" d="M50.79,124.64H63.54v8.43c3.58-5,8.43-9.59,17-9.59,8,0,13.6,3.9,16.55,9.8,4.53-5.9,10.43-9.8,18.86-9.8,12.11,0,19.49,7.69,19.49,21.28v35.51H122.65V148.66c0-8.85-4.11-13.59-11.27-13.59-7,0-11.91,4.85-11.91,13.8v31.4H86.72V148.56c0-8.64-4.22-13.49-11.28-13.49s-11.9,5.27-11.9,13.91v31.29H50.79Z"/><path class="cls-1" d="M180.92,156.43a36.55,36.55,0,0,0-12.75-2.21c-8,0-12.75,3.26-12.75,8.64v.21c0,5.27,4.74,8.22,10.74,8.22,8.44,0,14.76-4.74,14.76-11.7Zm-.32,23.29v-6.85c-3.79,4.53-9.59,8-18,8-10.53,0-19.81-6-19.81-17.18v-.21c0-12.33,9.59-18.23,22.55-18.23a46.83,46.83,0,0,1,15.39,2.32v-1.05c0-7.69-4.85-11.91-13.7-11.91a38.65,38.65,0,0,0-15.91,3.48l-3.48-10.22a47.7,47.7,0,0,1,21.18-4.64c16.44,0,24.44,8.64,24.44,23.5v33Z"/><path class="cls-1" d="M317.71,148c-.85-8.22-5.69-14.65-14.12-14.65-7.8,0-13.28,6-14.44,14.65Zm-41.2,4.11v-.21c0-15.91,11.27-29,27.18-29,17.7,0,26.66,13.91,26.66,29.93,0,1.16-.11,2.32-.21,3.58H289.26c1.36,9.06,7.79,14.12,16,14.12,6.22,0,10.65-2.32,15.07-6.64l7.48,6.64c-5.27,6.32-12.54,10.43-22.76,10.43-16.12,0-28.55-11.69-28.55-28.87"/><path class="cls-1" d="M61.71,69.65,67.4,61c6,4.53,12.54,6.85,18.23,6.85,5.48,0,8.64-2.32,8.64-6v-.21c0-4.32-5.9-5.79-12.43-7.8-8.22-2.31-17.38-5.68-17.38-16.33V37.3c0-10.54,8.74-17,19.81-17a38.59,38.59,0,0,1,20.44,6.32l-5.06,9.06c-5.38-3.26-11.06-5.27-15.7-5.27-5,0-7.8,2.32-7.8,5.59v.21c0,4,6,5.69,12.54,7.8C96.8,46.57,106,50.26,106,60.27v.21C106,72.18,96.91,78,85.32,78a39.11,39.11,0,0,1-23.61-8.32"/><path class="cls-1" d="M111.55,0H124.3V29.92c3.59-5.26,8.75-9.79,17.39-9.79,12.54,0,19.81,8.43,19.81,21.39v35.4H148.75V45.31c0-8.64-4.32-13.59-11.91-13.59-7.37,0-12.54,5.16-12.54,13.8v31.4H111.55Z"/><path class="cls-1" d="M170.24,21.29H183V76.92H170.24ZM169.72.63h13.69V12.75H169.72Z"/><path class="cls-2" d="M355.57,104.62H321.71a2.25,2.25,0,0,1-2.25-2.25V98a2.25,2.25,0,0,1,2.25-2.25h33.86A2.26,2.26,0,0,1,357.83,98v4.41a2.26,2.26,0,0,1-2.26,2.25"/><path class="cls-2" d="M248.65,104.62H24.28A2.24,2.24,0,0,1,22,102.37V98a2.24,2.24,0,0,1,2.24-2.25H248.65A2.25,2.25,0,0,1,250.9,98v4.41a2.25,2.25,0,0,1-2.25,2.25"/><path class="cls-2" d="M285.22,37a14.7,14.7,0,0,1-1.05,3.45,6.13,6.13,0,0,1-1.77,2.27,6.81,6.81,0,0,1-2.71,1.21,18.58,18.58,0,0,1-4,.36,16.36,16.36,0,0,1-3.79-.36,4.18,4.18,0,0,1-2.21-1.21,3.83,3.83,0,0,1-.85-2.27,11.79,11.79,0,0,1,.33-3.45,14.36,14.36,0,0,1,1.05-3.38A6.33,6.33,0,0,1,272,31.34a6.68,6.68,0,0,1,2.71-1.27,17.11,17.11,0,0,1,4-.39,15.1,15.1,0,0,1,3.79.39,4.14,4.14,0,0,1,2.21,1.27,3.7,3.7,0,0,1,.83,2.26,13.48,13.48,0,0,1-.3,3.38M271,102.86a1.9,1.9,0,0,1-.53,1,3.26,3.26,0,0,1-1.27.69,11.3,11.3,0,0,1-2.24.41c-.92.09-2,.14-3.37.14a33.21,33.21,0,0,1-3.34-.14,9,9,0,0,1-2-.41,1.74,1.74,0,0,1-1-.69,1.37,1.37,0,0,1-.11-1l9.78-49.19a1.89,1.89,0,0,1,.52-1,3.48,3.48,0,0,1,1.27-.72,10.75,10.75,0,0,1,2.22-.47,29,29,0,0,1,3.4-.16,27.65,27.65,0,0,1,3.34.16,8.46,8.46,0,0,1,2,.47,1.85,1.85,0,0,1,1,.72,1.37,1.37,0,0,1,.11,1Z"/><path class="cls-2" d="M322,54.05a12.16,12.16,0,0,1-.11,1.41c-.07.58-.18,1.19-.3,1.86a16.76,16.76,0,0,1-.53,2,11.9,11.9,0,0,1-.75,1.79,5.05,5.05,0,0,1-.93,1.33,1.6,1.6,0,0,1-1.14.53H307.44l-4.65,23.15c-.11.55-.21,1.21-.3,2a14.3,14.3,0,0,0-.14,1.85,4.34,4.34,0,0,0,1,3.23,4.61,4.61,0,0,0,3.32,1A11.28,11.28,0,0,0,309,94a12.92,12.92,0,0,0,1.63-.44l1.19-.44a2.61,2.61,0,0,1,.94-.2.92.92,0,0,1,.75.42,2.32,2.32,0,0,1,.3,1.35,14.41,14.41,0,0,1-.22,2.38,23.44,23.44,0,0,1-.58,2.57,19.7,19.7,0,0,1-.8,2.26,4.92,4.92,0,0,1-.94,1.52,4.72,4.72,0,0,1-1.49.94,14.69,14.69,0,0,1-2.35.78,26.36,26.36,0,0,1-2.9.52,24.94,24.94,0,0,1-3.1.2,22.07,22.07,0,0,1-5.83-.7,10.5,10.5,0,0,1-4.23-2.18,9.23,9.23,0,0,1-2.57-3.81,16.4,16.4,0,0,1-.86-5.64q0-.61.06-1.41c0-.53.1-1.1.19-1.69s.19-1.19.28-1.79.19-1.15.3-1.63l4.81-24h-6a1.18,1.18,0,0,1-1-.48,3.36,3.36,0,0,1-.33-1.79,20,20,0,0,1,.19-2.46,18.1,18.1,0,0,1,.64-3,9,9,0,0,1,1.16-2.51,2.06,2.06,0,0,1,1.71-1h5.92l2.21-11a2.06,2.06,0,0,1,.52-1,3.23,3.23,0,0,1,1.27-.74,9.86,9.86,0,0,1,2.22-.44,32,32,0,0,1,3.39-.14,30.67,30.67,0,0,1,3.32.14,7.56,7.56,0,0,1,2.05.44,1.9,1.9,0,0,1,1,.74,1.42,1.42,0,0,1,.14,1l-2.21,11h10.67a1.31,1.31,0,0,1,1.27.61,3.74,3.74,0,0,1,.33,1.76"/><path class="cls-1" d="M274.08,135.6v-11h-15v-12.3H246.37v12.3h-7.06v11h7.06v29.29c0,12.22,6.64,16.33,16,16.33a22.31,22.31,0,0,0,11.48-2.84V167.94a17,17,0,0,1-7.9,1.9c-4.32,0-6.85-2-6.85-7V135.6Z"/><path class="cls-1" d="M236.63,49.21c0,11-7.17,17.81-15.92,17.81S204.49,60,204.49,49.21V49c0-10.64,7.58-17.81,16.22-17.81S236.63,38.25,236.63,49Zm-13-29.08c-9,0-14.76,4.63-18.87,10.43V21.28H192.05v67H204.8v-20c3.9,5.16,9.7,9.8,18.87,9.8,13.27,0,25.92-10.43,25.92-28.87V49c0-18.44-12.75-28.87-25.92-28.87"/><path class="cls-1" d="M215.91,151.88c0-.1.05-.19.06-.28v0c3.31-16.45,18.91-16,18.91-16V124.7s-10.7-2.78-19.7,11.79V124.64H202.43v55.63h12.76V159.09a33.32,33.32,0,0,1,.73-7.21Z"/><path class="cls-1" d="M350.12,151.82a2.8,2.8,0,0,0,.06-.28v0c3.31-16.45,18.91-16,18.91-16V124.65s-10.7-2.78-19.71,11.79V124.58H336.64v55.64h12.75V159a33.39,33.39,0,0,1,.74-7.22Z"/></g></g></svg>